HIERARCHY
ROOT newVegas:Hips
{
	OFFSET 0.000000 96.479958 0.000000
	CHANNELS 6 Xposition Yposition Zposition Xrotation Yrotation Zrotation
	JOINT newVegas:Pelvis
	{
		OFFSET 0.000000 0.000000 0.000000
		CHANNELS 3 Xrotation Yrotation Zrotation
		JOINT newVegas:LeftUpLeg
		{
			OFFSET 18.735201 -5.666702 -4.541200
			CHANNELS 3 Xrotation Yrotation Zrotation
			JOINT newVegas:LeftLeg
			{
				OFFSET -0.021200 -31.938179 0.493100
				CHANNELS 3 Xrotation Yrotation Zrotation
				JOINT newVegas:LeftFoot
				{
					OFFSET 0.021200 -31.938179 -4.336299
					CHANNELS 3 Xrotation Yrotation Zrotation
					JOINT newVegas:LeftToeBase
					{
						OFFSET 0.943001 -26.722000 15.023500
						CHANNELS 3 Xrotation Yrotation Zrotation
						End Site
						{
							OFFSET 0.000000 30.670183 0.000000
						}
					}
				}
				JOINT newVegas:Left_PantLeg
				{
					OFFSET 0.663870 -9.044666 -1.108900
					CHANNELS 3 Xrotation Yrotation Zrotation
					End Site
					{
						OFFSET 1.415995 20.635357 0.000000
					}
				}
			}
		}
		JOINT newVegas:RightUpLeg
		{
			OFFSET -18.735201 -5.666702 -4.541200
			CHANNELS 3 Xrotation Yrotation Zrotation
			JOINT newVegas:RightLeg
			{
				OFFSET 0.018946 -31.938133 0.493100
				CHANNELS 3 Xrotation Yrotation Zrotation
				JOINT newVegas:RightFoot
				{
					OFFSET -0.018946 -31.938126 -4.336299
					CHANNELS 3 Xrotation Yrotation Zrotation
					JOINT newVegas:RightToeBase
					{
						OFFSET -0.943001 -26.722004 15.023500
						CHANNELS 3 Xrotation Yrotation Zrotation
						End Site
						{
							OFFSET 0.000000 30.670187 0.000000
						}
					}
				}
				JOINT newVegas:Right_PantLeg
				{
					OFFSET -0.661674 -9.044716 -1.108900
					CHANNELS 3 Xrotation Yrotation Zrotation
					End Site
					{
						OFFSET -1.415958 20.635269 0.000000
					}
				}
			}
		}
	}
	JOINT newVegas:Spine
	{
		OFFSET 0.000000 10.199997 -0.299500
		CHANNELS 3 Xrotation Yrotation Zrotation
		JOINT newVegas:Spine1
		{
			OFFSET 0.000000 11.900002 -1.516600
			CHANNELS 3 Xrotation Yrotation Zrotation
			JOINT newVegas:Spine2
			{
				OFFSET 0.000000 13.600006 -2.842500
				CHANNELS 3 Xrotation Yrotation Zrotation
				JOINT newVegas:Neck
				{
					OFFSET 0.000000 9.624100 -2.890100
					CHANNELS 3 Xrotation Yrotation Zrotation
					JOINT newVegas:Head
					{
						OFFSET 0.000000 14.068802 -1.351900
						CHANNELS 3 Xrotation Yrotation Zrotation
						JOINT newVegas:Hair_Back
						{
							OFFSET 0.000000 3.231903 -17.524799
							CHANNELS 3 Xrotation Yrotation Zrotation
							End Site
							{
								OFFSET 0.000000 19.849884 0.000000
							}
						}
						JOINT newVegas:Hair_Front
						{
							OFFSET 0.000000 31.260406 4.573800
							CHANNELS 3 Xrotation Yrotation Zrotation
							JOINT newVegas:Hair_Front1
							{
								OFFSET 0.000000 2.284103 11.993300
								CHANNELS 3 Xrotation Yrotation Zrotation
								JOINT newVegas:Hair_Front2
								{
									OFFSET 0.000000 2.284103 11.993300
									CHANNELS 3 Xrotation Yrotation Zrotation
									End Site
									{
										OFFSET 0.000000 12.208862 0.000000
									}
								}
							}
						}
						JOINT newVegas:Jowel
						{
							OFFSET 0.000000 -7.458206 6.864100
							CHANNELS 3 Xrotation Yrotation Zrotation
							End Site
							{
								OFFSET 0.000000 19.849884 0.000000
							}
						}
					}
				}
				JOINT newVegas:LeftShoulder
				{
					OFFSET 15.263000 10.923401 -0.547700
					CHANNELS 3 Xrotation Yrotation Zrotation
					JOINT newVegas:LeftArm
					{
						OFFSET 25.438599 -2.830597 -13.032500
						CHANNELS 3 Xrotation Yrotation Zrotation
						JOINT newVegas:LeftForeArm
						{
							OFFSET 29.960503 0.000000 0.000000
							CHANNELS 3 Xrotation Yrotation Zrotation
							JOINT newVegas:LeftHand
							{
								OFFSET 27.849251 0.000000 0.000000
								CHANNELS 3 Xrotation Yrotation Zrotation
								JOINT newVegas:LeftHandThumb1
								{
									OFFSET 4.487587 -3.305161 6.305391
									CHANNELS 3 Xrotation Yrotation Zrotation
									JOINT newVegas:LeftHandThumb2
									{
										OFFSET 5.480453 -3.164139 3.164143
										CHANNELS 3 Xrotation Yrotation Zrotation
										JOINT newVegas:LeftHandThumb3
										{
											OFFSET 5.159721 -2.978973 2.978967
											CHANNELS 3 Xrotation Yrotation Zrotation
											End Site
											{
												OFFSET 2.494507 5.926697 1.738678
											}
										}
									}
								}
								JOINT newVegas:LeftHandIndex1
								{
									OFFSET 18.578728 -0.527832 5.208049
									CHANNELS 3 Xrotation Yrotation Zrotation
									JOINT newVegas:LeftHandIndex2
									{
										OFFSET 3.192009 0.000000 0.000000
										CHANNELS 3 Xrotation Yrotation Zrotation
										JOINT newVegas:LeftHandIndex3
										{
											OFFSET 3.835129 0.000000 0.000000
											CHANNELS 3 Xrotation Yrotation Zrotation
											End Site
											{
												OFFSET -0.034599 3.816971 0.371180
											}
										}
									}
								}
								JOINT newVegas:LeftHandMiddle1
								{
									OFFSET 18.476105 0.000000 0.000000
									CHANNELS 3 Xrotation Yrotation Zrotation
									JOINT newVegas:LeftHandMiddle2
									{
										OFFSET 3.324875 0.000000 0.000000
										CHANNELS 3 Xrotation Yrotation Zrotation
										JOINT newVegas:LeftHandMiddle3
										{
											OFFSET 4.596550 0.000000 0.000000
											CHANNELS 3 Xrotation Yrotation Zrotation
											End Site
											{
												OFFSET 0.057701 4.578827 0.399218
											}
										}
									}
								}
								JOINT newVegas:LeftHandRing1
								{
									OFFSET 17.732719 0.121887 -4.201567
									CHANNELS 3 Xrotation Yrotation Zrotation
									JOINT newVegas:LeftHandRing2
									{
										OFFSET 2.733170 0.000000 0.000000
										CHANNELS 3 Xrotation Yrotation Zrotation
										JOINT newVegas:LeftHandRing3
										{
											OFFSET 3.178268 0.000000 0.000000
											CHANNELS 3 Xrotation Yrotation Zrotation
											End Site
											{
												OFFSET 0.119102 3.170624 0.185394
											}
										}
									}
								}
								JOINT newVegas:LeftHandPinky1
								{
									OFFSET 15.989624 -0.606689 -7.535461
									CHANNELS 3 Xrotation Yrotation Zrotation
									JOINT newVegas:LeftHandPinky2
									{
										OFFSET 2.538986 0.000000 0.000000
										CHANNELS 3 Xrotation Yrotation Zrotation
										JOINT newVegas:LeftHandPinky3
										{
											OFFSET 2.593102 0.000000 0.000000
											CHANNELS 3 Xrotation Yrotation Zrotation
											End Site
											{
												OFFSET -0.150902 2.584198 0.152708
											}
										}
									}
								}
							}
							JOINT newVegas:Left_Sleeve
							{
								OFFSET 0.267448 -0.649796 0.577675
								CHANNELS 3 Xrotation Yrotation Zrotation
								End Site
								{
									OFFSET 0.000000 15.991241 0.000000
								}
							}
							JOINT newVegas:Left_CapeC
							{
								OFFSET 15.715958 -8.608795 -6.935905
								CHANNELS 3 Xrotation Yrotation Zrotation
								JOINT newVegas:Left_CapeC1
								{
									OFFSET 0.000000 -8.688499 0.000000
									CHANNELS 3 Xrotation Yrotation Zrotation
									End Site
									{
										OFFSET 0.000000 8.688499 0.000000
									}
								}
							}
						}
						JOINT newVegas:Left_CapeB
						{
							OFFSET 26.118385 -8.608795 -7.079235
							CHANNELS 3 Xrotation Yrotation Zrotation
							JOINT newVegas:Left_CapeB1
							{
								OFFSET 0.000000 -8.688499 0.000000
								CHANNELS 3 Xrotation Yrotation Zrotation
								End Site
								{
									OFFSET 0.000000 8.688499 0.000000
								}
							}
						}
						JOINT newVegas:Left_CapeA
						{
							OFFSET 5.115639 -8.608795 -10.395809
							CHANNELS 3 Xrotation Yrotation Zrotation
							JOINT newVegas:Left_CapeA1
							{
								OFFSET 0.000000 -8.688499 0.000000
								CHANNELS 3 Xrotation Yrotation Zrotation
								End Site
								{
									OFFSET 0.000000 8.688499 0.000000
								}
							}
						}
					}
				}
				JOINT newVegas:RightShoulder
				{
					OFFSET -15.263000 10.923401 -0.547700
					CHANNELS 3 Xrotation Yrotation Zrotation
					JOINT newVegas:RightArm
					{
						OFFSET -25.438599 -2.830597 -13.032500
						CHANNELS 3 Xrotation Yrotation Zrotation
						JOINT newVegas:RightForeArm
						{
							OFFSET -29.960503 0.000000 0.000000
							CHANNELS 3 Xrotation Yrotation Zrotation
							JOINT newVegas:RightHand
							{
								OFFSET -27.849251 0.000000 0.000000
								CHANNELS 3 Xrotation Yrotation Zrotation
								JOINT newVegas:RightHandThumb1
								{
									OFFSET -4.487587 -3.305161 6.305391
									CHANNELS 3 Xrotation Yrotation Zrotation
									JOINT newVegas:RightHandThumb2
									{
										OFFSET -5.480453 -3.164139 3.164143
										CHANNELS 3 Xrotation Yrotation Zrotation
										JOINT newVegas:RightHandThumb3
										{
											OFFSET -5.159721 -2.978973 2.978967
											CHANNELS 3 Xrotation Yrotation Zrotation
											End Site
											{
												OFFSET -2.494507 5.926697 1.738678
											}
										}
									}
								}
								JOINT newVegas:RightHandIndex1
								{
									OFFSET -18.578728 -0.527832 5.208049
									CHANNELS 3 Xrotation Yrotation Zrotation
									JOINT newVegas:RightHandIndex2
									{
										OFFSET -3.192009 0.000000 0.000000
										CHANNELS 3 Xrotation Yrotation Zrotation
										JOINT newVegas:RightHandIndex3
										{
											OFFSET -3.835129 0.000000 0.000000
											CHANNELS 3 Xrotation Yrotation Zrotation
											End Site
											{
												OFFSET 0.034599 3.816971 0.371180
											}
										}
									}
								}
								JOINT newVegas:RightHandMiddle1
								{
									OFFSET -18.476105 0.000000 0.000000
									CHANNELS 3 Xrotation Yrotation Zrotation
									JOINT newVegas:RightHandMiddle2
									{
										OFFSET -3.324875 0.000000 0.000000
										CHANNELS 3 Xrotation Yrotation Zrotation
										JOINT newVegas:RightHandMiddle3
										{
											OFFSET -4.596550 0.000000 0.000000
											CHANNELS 3 Xrotation Yrotation Zrotation
											End Site
											{
												OFFSET -0.057701 4.578827 0.399218
											}
										}
									}
								}
								JOINT newVegas:RightHandRing1
								{
									OFFSET -17.732719 0.121887 -4.201567
									CHANNELS 3 Xrotation Yrotation Zrotation
									JOINT newVegas:RightHandRing2
									{
										OFFSET -2.733170 0.000000 0.000000
										CHANNELS 3 Xrotation Yrotation Zrotation
										JOINT newVegas:RightHandRing3
										{
											OFFSET -3.178268 0.000000 0.000000
											CHANNELS 3 Xrotation Yrotation Zrotation
											End Site
											{
												OFFSET -0.119102 3.170624 0.185394
											}
										}
									}
								}
								JOINT newVegas:RightHandPinky1
								{
									OFFSET -15.989624 -0.606689 -7.535461
									CHANNELS 3 Xrotation Yrotation Zrotation
									JOINT newVegas:RightHandPinky2
									{
										OFFSET -2.538986 0.000000 0.000000
										CHANNELS 3 Xrotation Yrotation Zrotation
										JOINT newVegas:RightHandPinky3
										{
											OFFSET -2.593102 0.000000 0.000000
											CHANNELS 3 Xrotation Yrotation Zrotation
											End Site
											{
												OFFSET 0.150902 2.584198 0.152708
											}
										}
									}
								}
							}
							JOINT newVegas:Right_CapeC
							{
								OFFSET -15.715958 -8.608795 -6.935905
								CHANNELS 3 Xrotation Yrotation Zrotation
								JOINT newVegas:Right_CapeC1
								{
									OFFSET 0.000000 -8.688499 0.000000
									CHANNELS 3 Xrotation Yrotation Zrotation
									End Site
									{
										OFFSET 0.000000 8.688499 0.000000
									}
								}
							}
							JOINT newVegas:Right_Sleeve
							{
								OFFSET -0.267448 -0.649994 0.577675
								CHANNELS 3 Xrotation Yrotation Zrotation
								End Site
								{
									OFFSET 0.000000 15.991302 0.000000
								}
							}
						}
						JOINT newVegas:Right_CapeA
						{
							OFFSET -5.115540 -8.608795 -10.395824
							CHANNELS 3 Xrotation Yrotation Zrotation
							JOINT newVegas:Right_CapeA1
							{
								OFFSET 0.000000 -8.688499 0.000000
								CHANNELS 3 Xrotation Yrotation Zrotation
								End Site
								{
									OFFSET 0.000000 8.688499 0.000000
								}
							}
						}
						JOINT newVegas:Right_CapeB
						{
							OFFSET -26.118187 -8.608795 -7.079266
							CHANNELS 3 Xrotation Yrotation Zrotation
							JOINT newVegas:Right_CapeB1
							{
								OFFSET 0.000000 -8.688499 0.000000
								CHANNELS 3 Xrotation Yrotation Zrotation
								End Site
								{
									OFFSET 0.000000 8.688499 0.000000
								}
							}
						}
					}
				}
				JOINT newVegas:Left_Collar
				{
					OFFSET 18.625099 8.655502 8.828100
					CHANNELS 3 Xrotation Yrotation Zrotation
					JOINT newVegas:Left_Collar1
					{
						OFFSET 14.783401 10.540405 -1.259500
						CHANNELS 3 Xrotation Yrotation Zrotation
						End Site
						{
							OFFSET 0.000000 18.199875 0.000000
						}
					}
				}
				JOINT newVegas:Collar_Back
				{
					OFFSET 0.000000 15.630707 -20.132601
					CHANNELS 3 Xrotation Yrotation Zrotation
					End Site
					{
						OFFSET 0.000000 22.523010 0.000000
					}
				}
				JOINT newVegas:Left_Peck
				{
					OFFSET 17.239599 -5.132599 25.482599
					CHANNELS 3 Xrotation Yrotation Zrotation
					End Site
					{
						OFFSET 0.000000 22.523010 0.000000
					}
				}
				JOINT newVegas:Right_Peck
				{
					OFFSET -17.239599 -5.132202 25.482599
					CHANNELS 3 Xrotation Yrotation Zrotation
					End Site
					{
						OFFSET 0.000000 22.523010 0.000000
					}
				}
				JOINT newVegas:Right_Collar
				{
					OFFSET -18.625099 8.655792 8.828100
					CHANNELS 3 Xrotation Yrotation Zrotation
					JOINT newVegas:Right_Collar1
					{
						OFFSET -14.783401 10.539993 -1.259500
						CHANNELS 3 Xrotation Yrotation Zrotation
						End Site
						{
							OFFSET 0.000000 18.199631 0.000000
						}
					}
				}
			}
		}
		JOINT newVegas:Belly
		{
			OFFSET 0.000000 -6.540398 9.014299
			CHANNELS 3 Xrotation Yrotation Zrotation
			End Site
			{
				OFFSET 0.000000 11.566666 0.000000
			}
		}
	}
	JOINT newVegas:ElvisFacialAnim_Joint
	{
		OFFSET 1.000000 -95.330101 -8.825800
		CHANNELS 3 Xrotation Yrotation Zrotation
		End Site
		{
			OFFSET 0.000000 35.315800 0.000000
		}
	}
}
MOTION
Frames: 4
Frame Time: 0.016667
-6.176692 77.103539 5.275737 7.174709 -59.274704 -0.354970 -0.000000 -0.000002 0.000000 -60.608189 -21.631914 30.765030 40.079461 -8.700433 -0.339370 26.492574 -0.002258 -7.691938 0.000001 0.000002 -0.000001 0.000000 0.000000 -0.000001 -57.511497 1.939773 -19.148896 68.628511 4.087628 0.417364 -3.717703 -1.497991 13.382222 -0.000001 0.000002 -0.000000 -0.000000 -0.000000 0.000000 4.770508 11.000565 1.168167 6.079591 5.798315 -0.521033 5.085130 16.136088 1.189173 2.649932 2.063385 -2.043147 2.649924 2.063391 -2.043145 -0.000000 -0.000001 -0.000001 2.649927 2.063391 -2.043142 2.650024 2.063403 -2.043151 -0.000001 -0.000001 0.000000 -0.000000 -0.000001 -0.000000 3.544247 4.756020 -11.623021 -54.038841 -33.116428 -50.381559 0.000056 -81.882357 0.000091 -58.768382 25.992614 38.870327 -14.557461 10.837962 12.229956 0.749562 -4.257829 13.305515 0.000000 -0.000002 0.000000 -0.809536 2.578172 -31.496441 3.095892 5.163771 -61.866966 -0.000000 0.000000 -0.000001 -2.430840 1.729211 -41.460949 2.952360 5.084717 -60.259931 0.000001 0.000001 0.000003 -6.054121 -0.166597 -49.857584 3.046251 5.137010 -61.313952 -0.000001 -0.000000 -0.000003 -8.298295 -6.522664 -38.520153 2.848768 5.024365 -59.084428 0.000001 0.000003 0.000001 0.000000 0.000001 0.000003 0.000000 0.000001 0.000003 -0.000001 0.000001 0.000003 -0.000002 -0.000001 0.000003 -0.000003 -0.000002 0.000003 -0.000002 -0.000001 0.000003 -0.000004 -0.000002 0.000002 -14.733707 2.115976 -4.463090 72.337550 138.834045 -52.653525 0.000011 29.080705 -0.000012 -49.752450 -7.371316 -31.498719 8.377121 -4.904125 11.022001 21.620180 -18.183902 -18.379192 0.000003 -0.000002 -0.000001 0.558917 -4.406584 25.436671 1.653048 -3.560347 49.799090 -0.000000 0.000001 -0.000004 10.969822 -12.875523 52.800835 6.387552 -4.324392 111.833672 -0.000001 0.000002 -0.000002 3.705084 -7.151311 57.622440 5.328214 -4.608667 98.293409 -0.000000 0.000001 0.000001 0.474819 -5.173006 58.987672 3.194298 -4.421909 71.674161 -0.000001 -0.000000 0.000001 0.000000 0.000000 -0.000000 -0.000002 0.000001 -0.000001 0.000000 0.000000 -0.000000 0.000001 0.000001 0.000000 0.000001 0.000001 0.000001 0.000001 0.000001 0.000000 0.000001 0.000001 0.000001 0.000001 0.000001 -0.000001 0.000001 0.000001 -0.000001 0.000001 0.000001 -0.000001 0.000001 0.000001 -0.000001 0.000001 0.000001 -0.000001 0.000001 0.000001 -0.000001 0.000001 0.000001 -0.000001 -0.000000 -0.000000 -0.000000 -0.000000 -0.000002 0.000000 
-6.503479 78.528465 0.415536 8.670406 -60.116470 0.728135 -0.000000 0.000002 -0.000001 -64.496431 -21.285289 27.526842 49.380352 -5.931930 -0.275023 18.507740 -0.211677 -7.886048 -0.000000 0.000003 0.000000 0.000000 0.000001 -0.000003 -59.682425 -0.991460 -15.988730 64.731041 3.028373 0.368609 3.186877 -0.657044 13.532504 -0.000000 0.000002 -0.000000 0.000001 0.000003 -0.000001 4.947524 10.762548 1.414721 6.266319 5.663342 -0.193639 5.219003 15.988016 1.524874 2.580647 2.081396 -2.033707 2.580662 2.081397 -2.033700 -0.000003 0.000001 -0.000001 2.580658 2.081410 -2.033709 2.580593 2.081405 -2.033707 0.000000 -0.000002 0.000000 -0.000003 0.000001 -0.000001 3.410889 4.228988 -11.245752 -53.679713 -32.244579 -50.209578 0.000069 -82.808285 0.000075 -57.769965 25.806939 38.829055 -14.557459 10.837965 12.229953 0.749561 -4.257828 13.305521 0.000002 -0.000006 -0.000001 -0.809536 2.578172 -31.496441 3.095894 5.163770 -61.866966 0.000000 -0.000000 -0.000000 -2.430841 1.729212 -41.460942 2.952361 5.084717 -60.259931 -0.000001 0.000001 -0.000003 -6.054122 -0.166598 -49.857587 3.046251 5.137010 -61.313952 -0.000001 -0.000001 -0.000000 -8.298294 -6.522663 -38.520153 2.848766 5.024368 -59.084415 -0.000000 -0.000002 0.000001 -0.000001 0.000001 0.000002 -0.000001 0.000001 0.000002 -0.000002 0.000001 0.000002 -0.000001 -0.000002 0.000002 -0.000001 -0.000003 0.000002 -0.000001 -0.000002 0.000002 -0.000003 -0.000003 0.000001 -14.874835 3.395346 -4.575093 74.932414 137.222079 -55.175136 -0.000004 32.460652 -0.000006 -50.128582 -7.281804 -32.986074 8.377123 -4.904124 11.022000 21.620178 -18.183898 -18.379192 0.000002 0.000001 -0.000000 0.558918 -4.406583 25.436673 1.653048 -3.560347 49.799094 -0.000000 0.000000 -0.000000 10.969823 -12.875521 52.800842 6.387553 -4.324392 111.833672 0.000001 -0.000001 -0.000001 3.705086 -7.151307 57.622447 5.328210 -4.608667 98.293416 0.000000 0.000001 0.000001 0.474819 -5.173007 58.987672 3.194295 -4.421908 71.674161 0.000000 -0.000000 0.000001 -0.000002 -0.000000 0.000001 -0.000002 -0.000001 -0.000001 -0.000002 -0.000000 0.000001 -0.000001 0.000001 -0.000001 -0.000001 0.000001 -0.000001 -0.000001 0.000001 -0.000001 -0.000001 0.000001 -0.000001 0.000002 0.000000 -0.000000 0.000002 0.000000 -0.000000 0.000002 0.000000 -0.000000 0.000002 0.000000 -0.000000 0.000002 0.000000 -0.000000 0.000002 0.000000 -0.000000 0.000002 0.000000 -0.000000 -0.000000 0.000002 -0.000000 -0.000000 0.000002 -0.000001 
-6.902545 79.970810 -4.529698 11.040071 -61.376367 2.650621 0.000000 0.000000 -0.000000 -67.897121 -20.013311 24.212102 57.111334 -4.180625 -0.244867 11.803209 -0.204561 -8.883512 -0.000000 -0.000002 -0.000001 0.000001 0.000003 0.000002 -61.227728 -4.556162 -11.897676 61.373997 1.681803 0.188314 6.067422 0.374780 11.265739 -0.000000 0.000001 -0.000000 0.000000 0.000001 -0.000000 5.024062 10.608803 1.395216 6.308402 5.733788 0.124732 5.204271 16.033838 1.859612 2.538374 2.089997 -1.984324 2.538382 2.089995 -1.984326 -0.000001 0.000001 -0.000000 2.538306 2.089983 -1.984315 2.538462 2.090006 -1.984328 0.000001 0.000001 0.000000 -0.000001 0.000001 0.000000 3.342831 3.885606 -11.068023 -52.875787 -31.812392 -49.380598 -0.000317 -83.745352 -0.000282 -57.807470 26.117735 39.098988 -14.557459 10.837963 12.229952 0.749561 -4.257829 13.305516 0.000000 -0.000001 -0.000001 -0.809535 2.578172 -31.496441 3.095892 5.163770 -61.866966 0.000001 -0.000000 0.000001 -2.430841 1.729210 -41.460942 2.952361 5.084716 -60.259931 0.000001 0.000000 -0.000002 -6.054120 -0.166597 -49.857584 3.046252 5.137012 -61.313946 -0.000001 -0.000001 -0.000000 -8.298292 -6.522665 -38.520156 2.848767 5.024368 -59.084428 -0.000000 0.000002 -0.000001 -0.000001 0.000000 0.000002 -0.000001 0.000000 0.000002 -0.000002 0.000000 0.000002 -0.000000 -0.000001 -0.000001 -0.000000 -0.000002 -0.000002 -0.000000 -0.000001 -0.000001 -0.000000 -0.000002 -0.000001 -14.973897 4.793937 -4.441296 77.819289 135.933223 -57.695735 -0.000004 35.490032 0.000005 -50.675195 -7.755468 -34.661711 8.377120 -4.904123 11.021999 21.620183 -18.183903 -18.379194 -0.000000 -0.000002 -0.000001 0.558916 -4.406583 25.436673 1.653049 -3.560346 49.799094 0.000001 -0.000001 -0.000000 10.969823 -12.875521 52.800842 6.387552 -4.324389 111.833679 -0.000000 0.000001 -0.000000 3.705083 -7.151307 57.622447 5.328212 -4.608664 98.293423 -0.000000 -0.000001 0.000001 0.474820 -5.173008 58.987672 3.194301 -4.421909 71.674154 -0.000001 -0.000005 -0.000000 -0.000002 0.000003 0.000002 -0.000002 -0.000001 -0.000000 -0.000002 0.000003 0.000002 0.000000 -0.000001 0.000001 0.000000 -0.000001 0.000001 0.000000 -0.000001 0.000001 0.000000 -0.000001 0.000001 -0.000000 -0.000002 0.000001 -0.000000 -0.000002 0.000001 -0.000000 -0.000002 0.000001 -0.000000 -0.000002 0.000001 -0.000000 -0.000002 0.000001 -0.000000 -0.000002 0.000001 -0.000000 -0.000002 0.000001 -0.000001 0.000000 -0.000000 0.000000 0.000000 -0.000000 
-7.462446 81.231026 -9.486905 14.279677 -62.961312 5.661411 0.000000 -0.000002 0.000001 -70.887221 -17.646221 21.295056 62.525157 -3.823078 -0.272254 7.214600 0.001350 -10.855411 -0.000000 0.000001 -0.000000 -0.000000 0.000000 0.000001 -62.037652 -6.194893 -9.979187 58.059832 2.625130 0.228405 7.170982 1.050625 17.269513 0.000001 0.000002 0.000000 -0.000000 -0.000001 0.000000 5.048421 10.434339 0.949081 6.230986 6.000037 0.369761 5.078926 16.267965 2.126720 2.520281 2.087797 -1.911175 2.520279 2.087807 -1.911183 0.000000 -0.000001 -0.000000 2.520276 2.087802 -1.911185 2.520283 2.087824 -1.911186 -0.000000 0.000001 -0.000001 0.000000 -0.000001 0.000000 3.352119 3.739645 -11.139677 -51.775894 -31.735412 -48.041522 -0.000008 -84.599679 0.000036 -58.433867 26.314975 39.463528 -14.557457 10.837963 12.229957 0.749560 -4.257827 13.305521 0.000003 -0.000002 -0.000005 -0.809538 2.578173 -31.496437 3.095892 5.163771 -61.866966 0.000000 -0.000001 -0.000002 -2.430841 1.729211 -41.460949 2.952361 5.084717 -60.259938 0.000000 0.000000 0.000000 -6.054121 -0.166598 -49.857584 3.046250 5.137011 -61.313952 -0.000000 0.000001 -0.000002 -8.298296 -6.522662 -38.520153 2.848769 5.024366 -59.084428 0.000002 -0.000002 0.000002 -0.000003 0.000003 -0.000003 -0.000003 0.000003 -0.000003 -0.000003 0.000003 -0.000003 -0.000005 0.000000 0.000002 -0.000005 -0.000001 -0.000001 -0.000005 0.000000 0.000002 -0.000005 -0.000000 0.000001 -15.042382 6.381665 -4.115086 80.832973 134.974428 -60.173366 -0.000003 38.062052 0.000004 -50.934841 -8.384236 -36.240355 8.377123 -4.904125 11.022003 21.620183 -18.183902 -18.379194 0.000001 -0.000000 -0.000001 0.558916 -4.406584 25.436671 1.653050 -3.560349 49.799094 -0.000000 -0.000001 -0.000001 10.969824 -12.875523 52.800846 6.387552 -4.324390 111.833672 -0.000001 0.000000 0.000003 3.705085 -7.151308 57.622447 5.328212 -4.608670 98.293423 -0.000000 -0.000001 0.000001 0.474817 -5.173008 58.987672 3.194297 -4.421909 71.674161 0.000001 0.000003 -0.000000 -0.000002 0.000001 -0.000000 0.000000 -0.000000 0.000002 -0.000002 0.000001 0.000002 0.000002 -0.000002 0.000001 0.000002 -0.000002 0.000002 0.000002 -0.000002 0.000001 0.000002 -0.000002 0.000002 -0.000000 0.000001 0.000001 -0.000000 0.000001 0.000001 -0.000000 0.000001 0.000001 -0.000000 0.000001 0.000001 -0.000000 0.000001 0.000001 -0.000000 0.000001 0.000001 -0.000000 0.000001 0.000001 0.000001 0.000000 0.000001 0.000000 -0.000002 0.000001 
